<?xml version="1.0" standalone="no"?>
<!DOCTYPE svg PUBLIC "-//W3C//DTD SVG 20010904//EN" "http://www.w3.org/TR/2001/REC-SVG-20010904/DTD/svg10.dtd">
<!-- Created using Karbon, part of Calligra: http://www.calligra.org/karbon -->
<svg xmlns="http://www.w3.org/2000/svg" xmlns:xlink="http://www.w3.org/1999/xlink" width="76.8pt" height="76.8pt">
<defs>
  <linearGradient id="gradient0" gradientTransform="translate(0, -956.362)" gradientUnits="objectBoundingBox" x1="0.57873325000" y1="13.68673527525" x2="0.56331948958" y2="15.34864600959" spreadMethod="pad">
   <stop stop-color="#ececec" offset="0.00000000000" stop-opacity="1.00000000000"/>
   <stop stop-color="#ececec" offset="1.00000000000" stop-opacity="0.00000000000"/>
  </linearGradient>
 </defs>
<g id="layer1">
  <rect id="rect3376" transform="" fill="#007700" opacity="0.50000000000" width="76.80000000000pt" height="76.80000000000pt" rx="4.00000000000pt" ry="4.00000000000pt"/>
  <g id="g4262" transform="translate(7.14948, 28.578)" fill="none">
   <path id="rect3294" transform="matrix(1.36083 0 0 1.36083 0.850519 0.850519)" fill="#ee0000" d="M0 0L0 27.2942L27.2942 27.2942L27.2942 18.6627L8.86477 18.6627L8.86477 0Z"/>
   <path id="rect3298" transform="matrix(1.36083 0 0 1.36083 43.7077 0.850519)" fill="#ee0000" d="M0 0L0 27.2942L27.2942 27.2942L27.2942 18.4294L8.39821 18.4294L8.39821 8.8648L27.2942 8.8648L27.2942 0Z"/>
  </g>
  <path id="rect3376-7" transform="" fill="url(#gradient0)" opacity="0.51953125000" d="M5 0C2.23 0 0 2.23 0 5L0 67.4687L96 34.0312L96 5C96 2.23 93.77 0 91 0Z"/>
 </g>
</svg>
